<svg width="17" height="22" viewBox="0 0 17 22" fill="none" xmlns="http://www.w3.org/2000/svg">
<path d="M2.1001 10.1C2.96558 9.45086 4.01825 9.09998 5.1001 9.09998C6.18195 9.09998 7.23462 9.45086 8.1001 10.1C8.96558 10.7491 10.0182 11.1 11.1001 11.1C12.1819 11.1 13.2346 10.7491 14.1001 10.1M11.3001 20.1H4.9001C4.40412 20.1027 3.92482 19.9211 3.55524 19.5903C3.18566 19.2595 2.95217 18.8032 2.9001 18.31L1.1001 1.09998H15.1001L13.2901 18.31C13.2382 18.8015 13.0061 19.2564 12.6387 19.5869C12.2712 19.9175 11.7944 20.1002 11.3001 20.1Z" stroke="currentColor" stroke-width="2.2" stroke-linecap="round" stroke-linejoin="round"/>
</svg>
